<?xml version="1.0" encoding="utf-8"?>
<!-- Generator: Adobe Illustrator 26.3.1, SVG Export Plug-In . SVG Version: 6.00 Build 0)  -->
<!DOCTYPE svg PUBLIC "-//W3C//DTD SVG 1.1//EN" "http://www.w3.org/Graphics/SVG/1.1/DTD/svg11.dtd" [
	<!ENTITY ns_extend "http://ns.adobe.com/Extensibility/1.0/">
	<!ENTITY ns_ai "http://ns.adobe.com/AdobeIllustrator/10.0/">
	<!ENTITY ns_graphs "http://ns.adobe.com/Graphs/1.0/">
	<!ENTITY ns_vars "http://ns.adobe.com/Variables/1.0/">
	<!ENTITY ns_imrep "http://ns.adobe.com/ImageReplacement/1.0/">
	<!ENTITY ns_sfw "http://ns.adobe.com/SaveForWeb/1.0/">
	<!ENTITY ns_custom "http://ns.adobe.com/GenericCustomNamespace/1.0/">
	<!ENTITY ns_adobe_xpath "http://ns.adobe.com/XPath/1.0/">
]>
<svg version="1.1" id="Layer_1" xmlns:x="&ns_extend;" xmlns:i="&ns_ai;" xmlns:graph="&ns_graphs;"
	 xmlns="http://www.w3.org/2000/svg" xmlns:xlink="http://www.w3.org/1999/xlink" x="0px" y="0px" width="299.1px" height="178.6px"
	 viewBox="0 0 299.1 178.6" enable-background="new 0 0 299.1 178.6" xml:space="preserve">
<metadata>
	<sfw  xmlns="&ns_sfw;">
		<slices></slices>
		<sliceSourceBounds  bottomLeftOrigin="true" height="108.2" width="228.8" x="306.5" y="-351.8"></sliceSourceBounds>
	</sfw>
</metadata>
<g>
	<path fill="#002F6C" d="M149.5,39.6c-2.4,0-7.5,1.4-9.3,1.9L57.6,65.4c-10.6,3-18,12.8-18,23.9c0,11,7.4,20.9,18,23.9l82.6,23.8
		c1.8,0.5,6.9,1.9,9.3,1.9c2.4,0,7.5-1.4,9.3-1.9l82.6-23.8c10.6-3,18-12.8,18-23.9c0-11-7.4-20.9-18-23.9l-82.6-23.8
		C157.1,41,152,39.6,149.5,39.6z"/>
	<g>
		<path fill="#FFD100" d="M149.5,143.4c-3.5,0-9.9-1.9-10.6-2.1l-82.6-23.8c-12.5-3.6-21.2-15.1-21.2-28.2c0-13,8.7-24.6,21.2-28.2
			l82.6-23.8c0.7-0.2,7-2.1,10.6-2.1c3.5,0,9.9,1.9,10.6,2.1l82.6,23.8c12.5,3.6,21.2,15.1,21.2,28.2c0,13-8.7,24.6-21.2,28.2
			l-82.6,23.8C159.4,141.5,153.1,143.4,149.5,143.4z M149.5,39.6c-2.4,0-7.5,1.4-9.3,1.9L57.6,65.4c-10.6,3-18,12.8-18,23.9
			c0,11,7.4,20.9,18,23.9l82.6,23.8c1.8,0.5,6.9,1.9,9.3,1.9c2.4,0,7.5-1.4,9.3-1.9l82.6-23.8c10.6-3,18-12.8,18-23.9
			c0-11-7.4-20.9-18-23.9l-82.6-23.8C157.1,41,152,39.6,149.5,39.6z"/>
		<g>
			<g>
				<path fill="#FFD100" d="M73.9,106V72.6h6.6l13.6,22.2V72.6h6.3V106h-6.8L80.2,84.2V106H73.9z"/>
				<path fill="#FFD100" d="M154.3,78.2c3.1,0,4.1,0,4.8,0.1c1.1,0.1,2,0.5,2.5,1.2c0.6,0.6,0.8,1.5,0.8,2.5c0,1.1-0.3,1.9-1,2.6
					c-0.7,0.7-1.6,1.1-2.7,1.2c-0.6,0.1-1.3,0.1-3.9,0.1h-4.4v-7.7H154.3z M143.7,106h11.3c4.3,0,6.1-0.1,7.2-0.2
					c1.8-0.2,3.3-0.7,4.5-1.6c1.2-0.9,2.2-2,2.9-3.4c0.7-1.4,1.1-2.9,1.1-4.4c0-1.9-0.5-3.6-1.6-5c-1.1-1.4-2.7-2.4-4.7-3
					c1.4-0.7,2.6-1.6,3.4-2.9c0.8-1.3,1.3-2.7,1.3-4.3c0-1.4-0.3-2.7-1-3.9c-0.7-1.2-1.5-2.1-2.6-2.8c-1-0.7-2.2-1.2-3.5-1.4
					c-1.3-0.2-3.3-0.3-5.9-0.3h-12.4V106z M155.9,91.5c3,0,4.1,0.2,5,0.5c0.9,0.3,1.6,0.8,2.1,1.5c0.5,0.7,0.7,1.5,0.7,2.5
					c0,1.2-0.3,2.1-0.9,2.8c-0.6,0.7-1.4,1.1-2.4,1.3c-0.6,0.1-1.2,0.2-3.7,0.2h-6.2v-8.9H155.9z"/>
				<path fill="#FFD100" d="M174.9,106V72.6h6.8v27.7h15.8v5.6H174.9z"/>
				<path fill="#FFD100" d="M201.1,106V72.6l23,0v5.6h-16.2v7.4h15v5.6h-15v9.1h17.3v5.6H201.1z"/>
			</g>
		</g>
		<g>
			<g>
				<g>
					<defs>
						<circle id="SVGID_1_" cx="122" cy="89.3" r="16.2"/>
					</defs>
					<clipPath id="SVGID_00000021840767117915608840000009420720966413709214_">
						<use xlink:href="#SVGID_1_"  overflow="visible"/>
					</clipPath>
					<g clip-path="url(#SVGID_00000021840767117915608840000009420720966413709214_)">
						<g>
							<g>
								<polygon fill="#FFD100" points="116.9,104 116.8,103.9 116.9,104 								"/>
								<polygon fill="#FFD100" points="116.9,104.1 117,104.2 117,104.1 116.9,104.1 								"/>
								<polygon fill="#FFD100" points="117.1,104.3 117.1,104.3 117.2,104.3 117.2,104.3 117.1,104.3 								"/>
								<polygon fill="#FFD100" points="118,104.8 118,104.8 117.9,104.8 117.9,104.8 118,104.9 118.1,104.9 118,104.8 118.1,104.8 
																	"/>
								<polygon fill="#FFD100" points="116.4,103.2 116.4,103.2 116.4,103.1 116.3,103.1 								"/>
								<polygon fill="#FFD100" points="118.5,105.1 118.8,105.1 118.6,105 118.5,105 								"/>
								<polygon fill="#FFD100" points="116.4,103.5 116.5,103.5 116.5,103.3 116.4,103.3 								"/>
								<polygon fill="#FFD100" points="118,94.2 117.9,94.1 117.9,94.2 								"/>
								<polygon fill="#FFD100" points="121.6,95.5 121.4,95.1 121,95.1 120.7,95 120.6,94.9 120.3,94.7 120,94.8 119.9,94.7 
									119.8,94.8 119.5,94.7 119.4,94.8 119.4,94.7 119.3,94.7 119.3,94.8 119.2,94.9 119.2,94.6 119.2,94.6 119,94.5 118.9,94.4 
									118.8,94.5 118.8,94.4 118.7,94.4 118.7,94.4 118.4,94.4 118.4,94.5 118.4,94.6 117.9,94.7 118.3,94.5 118.3,94.4 
									118.3,94.4 118.4,94.2 118.1,94.2 117.9,94.2 117.9,94.2 117.8,94.5 117.6,94.6 117.8,94.4 117.8,94.2 118,94 117.7,93.8 
									117.7,93.5 117.6,93.3 117.5,93.2 117.5,93.3 117.5,93.3 117.2,93 116.9,93 116.9,93 116.5,92.9 116.5,93 116.4,92.9 
									116.3,93 116.2,92.8 116.1,92.7 116,92.8 116,92.6 115.6,92.3 115.6,92.3 115.3,92.3 115.4,92.1 115.1,92 115.1,91.9 
									115,91.9 115,91.8 115.2,91.8 114.8,91.8 114.7,91.8 114.8,91.8 114.6,91.9 114.3,91.8 114,91.8 113.9,91.6 113.7,91.6 
									113.4,91.7 113.5,92 113.5,92.1 113.4,92.2 113.3,92 113.3,91.7 113.3,91.5 113.4,91.5 113.4,91.5 113.2,91.5 113,91.6 
									112.9,91.6 112.9,91.7 112.8,91.7 112.8,91.6 112.7,91.6 112.6,91.8 112.6,92 112.5,92.2 112.5,92.3 112.3,92.2 112.3,92.2 
									112.4,92.4 112.4,92.4 112.4,92.4 112.3,92.5 112.3,92.4 112.3,92.5 112.5,92.9 112.4,92.9 112.5,93.3 112.5,93.3 
									112.4,93.6 112.3,93.7 112.3,93.8 112.2,93.8 112.3,93.9 112.1,94 112.1,94.2 112.1,94.3 112.1,94.4 112,94.5 112.1,94.8 
									112.3,94.7 112.2,95 112.2,95 112.1,95.2 112.2,95.4 112.2,95.5 112.2,95.6 112.4,95.8 112.7,96.2 113,96.8 113.4,97.3 
									113.5,97.5 113.7,97.8 114.3,98.1 114.8,98.4 114.8,98.4 115,99.1 115.1,99.4 115,99.4 115.1,99.5 115.1,99.6 115.2,99.9 
									115.3,100.6 115.5,100.7 115.4,100.9 115.7,101.3 115.7,101.4 115.8,101.7 115.7,101.8 115.8,102 115.7,102 115.8,102.1 
									115.8,102.1 116,102.4 116.1,102.8 116.3,102.9 116.3,102.8 116.4,102.9 116.4,103 116.5,103.1 116.5,103.2 116.6,103.3 
									116.6,103.3 116.7,103.4 116.7,103.6 116.7,103.6 116.7,103.6 116.8,103.6 116.8,103.7 116.6,103.6 116.5,103.7 
									116.7,103.7 116.8,103.8 117,103.9 116.8,103.9 117.1,104.1 117.1,104.1 117.1,104.1 117.1,104.2 117.1,104.2 117.2,104.2 
									117.1,104.2 117.2,104.3 117.1,104.2 117.4,104.4 117.4,104.5 117.5,104.5 117.5,104.5 117.6,104.5 117.7,104.7 
									117.9,104.7 117.8,104.7 118,104.8 117.9,104.7 118.1,104.6 118.1,104.6 118.2,104.6 118.2,104.6 118.1,104.5 118,104.4 
									118,104.3 117.8,104.2 118,104.2 118,104.1 118.1,104 118,103.9 117.9,103.8 117.6,103.6 117.6,103.5 117.8,103.5 
									117.7,103.3 117.8,103.1 117.7,103.1 117.8,103 117.6,103 117.5,102.8 117.5,102.8 117.8,102.8 117.9,102.8 117.8,102.5 
									117.7,102.4 117.9,102.4 118.2,102.4 118.5,102.3 118.6,102 118.4,101.9 118.4,101.8 118.1,101.6 118,101.5 118,101.2 
									118.1,101.5 118.2,101.6 118.3,101.6 118.8,101.7 118.9,101.6 119,101.4 119.1,101.3 119,101 119.1,100.9 119.1,100.7 
									119.3,100.8 119.2,101 119.1,101 119.1,101.1 119.3,101 119.4,100.5 119.5,100.4 119.5,100.1 119.4,99.9 119.4,99.8 
									119.4,99.8 119.5,99.7 119.8,99.4 120,99.4 119.9,99.3 120.1,99.3 120.1,99.2 120.6,99.1 120.7,99 120.8,98.9 120.8,98.8 
									120.9,98.4 120.9,98.4 120.9,98.1 121,98 121,97.9 121,97.6 120.9,97.3 120.9,96.9 121,96.9 121.2,96.5 121.2,96.5 
									121.3,96.3 121.4,96.1 121.4,96.1 121.5,96 								"/>
								<polygon fill="#FFD100" points="118.1,104.9 118.3,105 118.4,105 118.6,105 118.7,105 118.9,105 119,105 119,105 
									118.8,104.9 118.3,104.8 118.3,104.7 118.3,104.7 118.2,104.7 118.1,104.7 118.2,104.8 118.4,104.9 118.2,104.9 								"/>
								<polygon fill="#FFD100" points="119.2,105 119.2,105 119.1,105 119.1,105 								"/>
								<polygon fill="#FFD100" points="113.4,84.6 113.6,84.5 113.3,84.5 113.2,84.6 								"/>
								<polygon fill="#FFD100" points="107.8,81 107.8,81.1 107.8,81.1 								"/>
								<polygon fill="#FFD100" points="109.2,77.5 109.3,77.4 109.3,77.5 109.2,77.6 								"/>
								<polygon fill="#FFD100" points="108.9,78.6 108.9,78.6 108.8,78.7 108.9,78.7 								"/>
								<polygon fill="#FFD100" points="108.8,78.7 108.7,78.9 108.8,78.8 								"/>
								<polygon fill="#FFD100" points="108.8,78.7 108.8,78.7 108.6,79 108.7,79 								"/>
								<polygon fill="#FFD100" points="108.6,79.2 108.6,79.1 108.6,79.1 108.5,79.2 								"/>
								<polygon fill="#FFD100" points="108.7,79 108.7,79 108.7,79.1 								"/>
								<polygon fill="#FFD100" points="120.6,73.1 120.6,73 120.5,73 120.5,73.1 								"/>
								<polygon fill="#FFD100" points="120.3,73.1 120.3,73.1 120.3,73 120.3,73.1 								"/>
								<polygon fill="#FFD100" points="118.1,74.5 118.2,74.4 118.2,74.4 118.1,74.4 								"/>
								<polygon fill="#FFD100" points="121.9,75.8 122,75.7 122.2,75.8 122.3,76 122.5,76 122.5,75.9 122.6,76 122.7,76 
									122.5,75.6 122.4,75.6 122.4,75.6 122.1,75.5 122,75.6 122,75.5 121.9,75.3 121.8,75.2 121.9,75.2 122,75.2 121.9,75.1 
									122.1,75.2 122.1,75 122.3,75.1 122.1,75.1 122.2,75.2 122.3,75.2 122.5,75.1 122.3,75.1 122.2,75 122.2,74.8 122.5,74.9 
									122.6,74.8 122.5,74.8 122.3,74.8 122.3,74.7 122.2,74.7 122.1,74.7 122.1,74.6 122.3,74.6 122.4,74.7 122.4,74.6 
									122.3,74.4 122.1,74.4 122,74.3 122.1,74.2 122.4,74.3 122.4,74.2 122.2,74 122,74 122,74.1 121.9,73.8 122,73.7 122,73.6 
									122,73.6 122.1,73.5 121.9,73.5 121.9,73.6 121.8,73.5 121.9,73.5 122,73.5 122.1,73.4 121.9,73.4 121.9,73.3 122.1,73.3 
									122.1,73.1 121.9,73 121.8,73 121.8,73.2 121.7,73.1 121.7,73.2 121.7,73.1 121.6,73.2 121.6,73.4 121.6,73.3 121.6,73.2 
									121.5,73 121.5,73.1 121.5,73.1 121.4,73.2 121.3,73.2 121.4,73.1 121.2,73.1 121.3,73 121.4,73 121.5,72.9 121.4,72.9 
									121.4,72.9 121.4,72.8 121.3,72.9 121.3,72.8 121.3,72.8 121.3,72.7 121.2,72.7 121.2,72.8 121.2,72.7 121.1,72.7 
									121.1,72.8 121.1,72.7 121,72.7 121,72.8 121,72.7 120.9,72.8 120.9,72.8 120.9,72.9 120.9,72.9 120.8,73 120.9,72.9 
									120.8,72.8 120.8,72.9 120.7,72.8 120.6,72.9 120.6,72.9 120.8,72.9 120.8,73 120.8,73 120.7,73 120.7,73.1 120.7,73 
									120.6,73 120.5,73.2 120.5,73.1 120.5,73.1 120.5,73.1 120.4,73 120.4,73.2 120.3,73.2 120.2,73.3 120.3,73.2 120.2,73.2 
									120.1,73.3 120.2,73.1 120,73.2 119.9,73.3 119.9,73.4 119.8,73.4 119.9,73.2 119.7,73.4 119.6,73.4 119.6,73.4 119.5,73.6 
									119.5,73.4 119.1,73.7 119.1,73.8 119.2,73.8 119.3,73.7 118.9,74 118.7,74 118.7,74.1 118.4,74.1 118.2,74.2 118.4,74.3 
									118.3,74.4 118.3,74.4 118.5,74.4 118.5,74.4 118.4,74.5 118.2,74.5 118.1,74.5 118.1,74.6 118.2,74.6 118,74.7 118.1,74.8 
									118.2,74.7 118.2,74.8 118.3,74.7 118.3,74.8 118.4,74.7 118.7,74.8 118.8,74.9 118.7,75 118.8,75.2 118.7,75.5 118.8,75.5 
									118.6,75.7 118.7,75.8 118.6,75.9 118.6,75.9 118.5,76 118.5,76 118.5,76.1 118.7,76.1 118.7,76 118.8,75.9 118.8,76.1 
									118.9,76.1 118.8,76.2 118.9,76.2 118.9,76.3 119,76.4 118.9,76.4 118.7,76.3 118.6,76.3 118.5,76.4 118.7,76.5 118.9,76.5 
									118.8,76.8 118.6,76.8 118.5,76.9 118.8,76.9 118.4,77.1 118.7,77.1 118.8,77.2 118.5,77.2 118.5,77.3 118.2,77.3 
									118.2,77.5 118.6,77.4 118.7,77.4 118.6,77.4 118.2,77.6 118.3,77.8 118.5,77.7 118.3,77.9 118.3,78.1 118.5,77.8 118.6,78 
									118.6,77.9 118.5,78.3 118.4,78.4 118.5,78.3 118.5,78.7 118.7,78.7 118.6,78.9 118.7,78.8 118.7,78.9 118.9,78.9 
									118.7,79.1 119,79.1 119.2,78.9 119.1,79 119.3,78.9 119.2,79.3 119.6,79.2 119.8,78.7 119.6,78.4 119.9,78.2 120,78.2 
									119.9,78.1 120.1,78.1 120.1,78 120,77.9 120.1,77.9 120,77.7 120.3,77.5 120.4,77.6 120.4,77.5 120.5,77.3 120.6,77.4 
									120.5,77.5 120.6,77.5 121,77.3 121.2,76.9 121.3,76.9 121.3,76.6 121.4,76.8 121.6,76.8 121.6,76.7 121.6,76.8 121.7,76.7 
									121.7,76.7 122.2,76.5 122.3,76.3 122.4,76.3 122.4,76.3 122.4,76.3 122.6,76.1 122.2,76.1 121.9,76.2 121.8,76.2 
									121.9,76.1 121.7,76.1 121.8,75.9 121.8,76 122.1,75.8 121.7,75.8 121.8,75.7 								"/>
								<polygon fill="#FFD100" points="118.6,76.2 118.7,76.3 118.7,76.1 118.7,76.1 								"/>
								<polygon fill="#FFD100" points="118.7,76.6 118.5,76.5 118.5,76.8 								"/>
								<polygon fill="#FFD100" points="118.9,76.6 118.8,76.6 118.7,76.7 								"/>
								<polygon fill="#FFD100" points="112.6,89.9 112.5,89.9 112.8,90 113.1,90 113.1,90 113.1,90 113.4,90 113.6,89.9 113.9,90 
									114,89.9 113.7,89.8 113.6,89.8 113.6,89.7 113.3,89.6 113.1,89.7 112.9,89.6 112.8,89.6 113,89.9 112.7,89.9 								"/>
								<polygon fill="#FFD100" points="111.8,89.6 112.2,89.5 112.3,89.6 112.4,89.5 112.4,89.6 112.6,89.5 112.4,89.4 112.2,89.4 
									112.3,89.3 112,89.2 111.9,89.1 111.6,88.9 111.5,88.9 111.4,88.8 111.1,88.8 111.1,88.7 110.7,88.7 110.5,88.8 110.4,88.9 
									110.5,88.9 110.8,88.8 110.9,88.8 111.2,89 111.4,89.1 111.6,89.1 111.7,89.3 111.9,89.4 111.9,89.4 111.9,89.5 								"/>
								<polygon fill="#FFD100" points="118.5,73.3 118.3,73.4 118.4,73.4 117.7,73.7 117.5,73.8 117.5,73.9 117.7,73.8 117.5,73.9 
									117.4,73.9 117.2,74.1 117.3,74.2 117.5,74 117.4,74.2 117.7,74 117.9,73.9 117.9,73.8 118.2,73.6 118.1,73.7 118.2,73.6 
									118.2,73.5 118.5,73.3 								"/>
								<polygon fill="#FFD100" points="120.1,73 120,73 120,72.9 119.9,73 120,72.9 120,72.9 119.9,73 119.9,72.9 119.7,73 
									119.8,72.9 119.8,72.9 119.6,73 119.7,72.9 119.7,72.9 119.6,73 119.5,73 119.6,73 119.6,73 119.5,73 119.5,73 119.3,73.1 
									119.4,73.1 119.3,73.1 119.3,73.1 119.2,73.2 119.3,73.1 119.2,73.2 119.1,73.2 119.3,73 119.3,73 119,73.2 119,73.1 
									118.9,73.2 118.7,73.2 118.7,73.3 118.6,73.3 118.8,73.3 118.7,73.3 118.6,73.3 118.5,73.4 118.6,73.4 118.4,73.4 
									118.6,73.4 118.8,73.3 118.6,73.4 118.7,73.4 118.6,73.5 118.6,73.5 118.4,73.6 118.5,73.6 118.7,73.5 118.5,73.6 
									118.6,73.6 118.4,73.8 118.5,73.7 118.4,73.7 118.3,73.8 118.3,73.7 118.2,73.6 118,73.8 118,73.8 118,73.9 117.9,74 
									117.8,74.1 117.8,74 117.7,74 117.5,74.2 117.6,74.1 117.5,74.3 117.7,74.2 117.7,74.2 117.3,74.4 117.3,74.4 117.4,74.3 
									117.3,74.2 117,74.4 116.8,74.5 116.8,74.7 116.9,74.6 116.9,74.6 117,74.6 117,74.7 117.1,74.6 117.2,74.5 117.1,74.6 
									117.3,74.5 117.2,74.6 117.3,74.7 117.2,74.7 117.5,74.6 117.6,74.5 117.5,74.4 117.4,74.5 117.6,74.3 117.6,74.4 
									117.8,74.4 117.9,74.3 118,74.3 118.3,74 118.2,74 118.4,73.9 118.4,73.9 118.6,73.9 118.6,73.8 118.6,73.8 118.7,73.8 
									118.8,73.8 119,73.6 119,73.7 119.1,73.6 119.3,73.5 119.3,73.5 119.3,73.5 119.6,73.3 119.7,73.3 120,73.1 120,73 
									119.9,73.1 120,73 								"/>
								<polygon fill="#FFD100" points="116.7,74 116.7,74 116.8,74 116.7,74 116.8,74 116.7,74.1 116.7,74.2 117,74 117.1,73.8 
									117,73.9 117.2,73.8 								"/>
								<polygon fill="#FFD100" points="116.6,73.9 116.8,73.8 116.5,73.9 116.4,73.9 								"/>
								<polygon fill="#FFD100" points="117.3,74 117.3,73.8 117,74.1 117.1,74.1 								"/>
								<polygon fill="#FFD100" points="116.2,74 116.3,73.9 116.2,73.9 116,74.1 								"/>
								<polygon fill="#FFD100" points="116.5,74.2 116.6,74.2 116.5,74.2 116.4,74.2 								"/>
								<polygon fill="#FFD100" points="116.9,74.3 117.1,74.2 117,74.1 116.9,74.2 								"/>
								<polygon fill="#FFD100" points="115.6,74.2 115.7,74.2 116,74 115.9,74 115.9,74 115.6,74.1 115.6,74.1 115.4,74.2 
									115.4,74.2 115.2,74.2 115.2,74.3 115.3,74.2 115.1,74.3 115.4,74.2 115.7,74.1 115.4,74.3 								"/>
								<polygon fill="#FFD100" points="116.9,74.5 116.9,74.4 116.8,74.5 116.7,74.6 								"/>
								<polygon fill="#FFD100" points="116,74.5 116.1,74.4 115.9,74.5 115.8,74.6 								"/>
								<polygon fill="#FFD100" points="116.2,74.6 116.4,74.4 116,74.5 115.7,74.7 116,74.6 115.8,74.7 115.7,74.9 115.9,74.8 
									115.8,74.9 								"/>
								<polygon fill="#FFD100" points="116.8,75.2 117,74.9 117,74.8 116.7,74.9 116.5,75 116.6,74.8 116.6,74.8 116.5,74.9 
									116.6,74.8 116.4,74.9 116.7,74.6 116.6,74.6 116.7,74.5 116.6,74.5 116.5,74.5 116.7,74.4 116.6,74.4 116.4,74.4 
									116.3,74.6 116.5,74.6 116.3,74.8 116,75.1 116.1,75.1 116.3,75 116.2,75.1 116.3,75.1 116.4,75.1 116.3,75.1 116.4,75.2 
									116.5,75.1 116.5,75.2 116.6,75 116.6,75.2 								"/>
								<polygon fill="#FFD100" points="115.4,74.6 115.3,74.6 115.6,74.3 115.5,74.4 115.6,74.3 115.6,74.3 115.4,74.3 115.3,74.4 
									115.2,74.5 115.1,74.5 115,74.5 114.9,74.6 115.1,74.5 114.9,74.6 115.3,74.5 115.1,74.6 115.2,74.6 114.8,74.8 115,74.8 
									115.1,74.7 115.3,74.7 115.2,74.8 115.3,74.8 115.6,74.6 115.7,74.5 115.5,74.5 115.9,74.3 								"/>
								<polygon fill="#FFD100" points="115,75.1 115,75 114.8,75.1 114.7,75.3 								"/>
								<polygon fill="#FFD100" points="116.4,75.7 116.6,75.6 116.6,75.7 116.7,75.4 116.5,75.5 116.5,75.4 								"/>
								<polygon fill="#FFD100" points="115.6,75.2 115.2,75.5 114.9,75.7 115,75.7 115.2,75.5 115.3,75.6 115.9,75.2 115.7,75.3 
									115.8,75.1 								"/>
								<polygon fill="#FFD100" points="113.3,75.4 113.8,75.1 114.3,75 114.6,74.8 114.4,74.8 114.6,74.6 114.5,74.6 114.2,74.7 
									113.9,74.9 113.8,74.9 113.6,75 113.4,75.2 113.4,75.2 113.1,75.5 								"/>
								<polygon fill="#FFD100" points="115.4,75.2 115.2,75.2 115.2,75.1 114.9,75.4 114.7,75.5 114.8,75.3 114.6,75.4 114.5,75.6 
									114.6,75.6 114.4,75.9 114.5,75.9 114.7,75.7 114.6,75.8 114.7,75.8 115.1,75.5 115,75.4 115.4,75.2 								"/>
								<polygon fill="#FFD100" points="114.1,75.7 114.6,75.3 114.5,75.3 114.6,75.2 114.1,75.5 114.1,75.6 113.9,75.7 114.2,75.4 
									114,75.4 114.2,75.3 114.2,75.2 114,75.3 114,75.3 114.3,75 114,75.1 113.7,75.3 113.4,75.4 113.5,75.4 113.4,75.5 
									113.6,75.5 113.3,75.6 113.3,75.6 113.2,75.6 113.1,75.7 113.3,75.9 113.1,76.1 113.1,75.9 112.8,75.9 112.9,76.1 
									112.9,76.2 112.7,76.4 112.9,76.4 113.1,76.3 113.1,76.4 113.3,76.3 113.3,76.2 113.5,76.4 113.7,76.3 113.7,76.4 
									113.8,76.2 113.9,76 113.8,76.1 113.8,76 								"/>
								<polygon fill="#FFD100" points="113.6,76.6 113.7,76.7 113.9,76.7 114,76.3 113.8,76.5 113.7,76.5 								"/>
								<polygon fill="#FFD100" points="114.7,76.8 114.7,76.8 114.5,77 								"/>
								<polygon fill="#FFD100" points="117.3,77.6 117.4,77.7 117.4,77.6 117.5,77.5 117.4,77.4 117.3,77.4 117.4,77.3 117.2,77.4 
									117.3,77.3 117.3,77.1 117.2,77.1 117.1,77.2 117.1,77.1 117,77.2 117.1,77.1 117,77.1 117,77 116.9,76.9 117.2,76.9 
									117.1,76.7 116.9,76.7 117.1,76.6 117.2,76.3 117,76.4 116.8,76.6 116.8,76.4 117.1,76.1 117.1,76 116.8,76.3 116.9,76 
									116.7,76.2 117,75.9 116.9,75.8 116.6,76 116.6,75.9 116.4,76 116.6,75.8 116.3,75.9 116.6,75.7 116.8,75.4 116.5,75.4 
									116.4,75.5 116.5,75.4 116.4,75.5 116.3,75.6 116.2,75.6 116,75.7 115.7,76.2 115.7,76 115.5,76.2 115.9,75.8 116.1,75.6 
									116.5,75.4 116.4,75.3 116.2,75.4 116,75.6 116,75.5 115.5,75.9 115.2,76.3 115.3,76.4 115.5,76.3 115.4,76.4 115.7,76.5 
									115.9,76.3 116,76.6 116.2,76.3 116.2,76.5 116.1,76.6 116.2,76.5 116.1,76.6 116.2,76.8 116,76.8 116,76.9 116.2,76.8 
									116.3,76.8 116.2,76.9 116.3,76.9 116.2,77 116.3,77 116.2,77.3 116.1,77.4 116.2,77.5 116.4,77.4 116.5,77.5 116.3,77.6 
									116.1,77.7 116,77.5 115.8,77.6 115.8,77.8 115.5,77.8 115.4,78 115.3,77.8 115,78.1 115.1,78.2 115.4,78.1 115.5,78.1 
									115.7,78 115.6,78.1 115.8,78.3 115.6,78.4 115.7,78.5 115.9,78.6 116,78.7 116.3,78.8 116.6,78.5 116.6,78.5 116.8,78.2 
									116.7,78.1 116.8,78.1 116.7,78 116.6,78 116.6,77.9 116.5,78 116.6,77.8 116.6,77.6 116.8,77.5 116.9,77.6 116.9,77.5 
									116.9,77.7 117.1,77.6 117.1,77.9 								"/>
								<polygon fill="#FFD100" points="114.2,77.7 114.2,77.6 114.2,77.6 114.2,77.7 								"/>
								<polygon fill="#FFD100" points="114.1,78.2 114.2,78.3 114.2,78.3 114.3,78 114.2,77.9 114.2,77.8 114.2,77.7 114.1,77.8 
									114.2,77.6 114.1,77.6 113.8,77.9 113.7,78.1 113.5,78.2 113.7,78.2 113.6,78.4 113.8,78.2 113.9,78.2 114.1,78.1 
									114.1,78.2 								"/>
								<polygon fill="#FFD100" points="108.4,79.4 108.4,79.4 108.4,79.5 								"/>
								<polygon fill="#FFD100" points="108.3,79.6 108.4,79.5 108.4,79.5 108.3,79.6 								"/>
								<polygon fill="#FFD100" points="108.3,79.6 108.3,79.6 108.3,79.7 								"/>
								<polygon fill="#FFD100" points="108.3,79.7 108.3,79.6 108.2,79.8 108.2,79.9 								"/>
								<polygon fill="#FFD100" points="108,80.6 107.9,80.6 107.9,80.7 								"/>
								<polygon fill="#FFD100" points="107.7,80.8 107.8,80.7 107.8,80.7 107.7,80.7 								"/>
								<polygon fill="#FFD100" points="107.9,80.4 107.8,80.6 107.8,80.7 107.8,80.8 107.8,80.8 107.7,80.9 107.8,80.9 107.7,81 
									107.7,81.2 107.8,80.9 107.8,80.8 107.9,80.6 								"/>
								<polygon fill="#FFD100" points="115.7,82.3 115.9,82.4 116,82.4 116,82.3 115.8,82.2 115.7,82.2 								"/>
								<polygon fill="#FFD100" points="117.4,81.6 117.1,81.7 117,81.9 116.9,82.2 116.7,82.5 116.5,82.7 116.5,82.7 116.7,82.7 
									117,82.7 117.2,82.6 117.3,82.9 117.5,82.7 117.5,82.6 117.6,82.9 117.8,82.9 117.8,82.5 117.7,82.7 117.6,82.4 117.7,82.3 
									117.5,82.2 117.3,82.3 117.2,82.1 117,82.2 117.3,81.8 117.3,81.7 117.4,81.7 								"/>
								<polygon fill="#FFD100" points="116.2,82.8 116,83.1 116,83.2 116.3,83.1 116.1,83.1 116.3,82.9 								"/>
								<polygon fill="#FFD100" points="109.3,77.5 109.3,77.5 109.3,77.5 								"/>
								<polygon fill="#FFD100" points="109.3,77.5 109.3,77.5 109.4,77.5 								"/>
								<path fill="#FFD100" d="M115,82.3l0.2-0.2l0.6-0.1l0.6,0.1l0.3-0.2l0.1-0.1l0.3-0.1l0.3-0.2l0,0l0-0.3l-0.2-0.1l-0.1,0.1
									l0.1-0.1l-0.2-0.1l0,0.1l-0.4,0.1l-0.1,0.1l-0.1,0l0.1-0.2l0.3,0l0.1-0.1l0.2-0.1l-0.4-0.1l0.1-0.1l-0.2,0.1l0-0.1l-0.1,0
									l-0.1,0.1l0-0.3l-0.1,0l0.1-0.1l-0.1,0l0.1-0.1l-0.1-0.3l-0.2,0.1l0.1-0.1l-0.1,0l0.1-0.1l-0.1,0l0.1-0.1l-0.1,0l0-0.1
									l-0.1,0l0.1-0.1l-0.1,0l-0.2,0.4l-0.1,0l-0.1,0.2l0-0.1l-0.2,0.2l-0.1,0.1l0-0.1l-0.1,0.1l-0.2,0.1l0.3-0.2l-0.1-0.2l-0.1,0
									l0.1-0.1l-0.1-0.1l0.2,0l0.1-0.3l-0.1-0.1l-0.2,0l0.1-0.1l-0.1,0l0.1-0.1l-0.1-0.2l0-0.1l-0.2,0.1l-0.2,0l0.1-0.1l-0.2,0
									l-0.1,0.1l0,0.2l-0.2,0.1l0.1,0.1l-0.1,0.1l0,0.1l-0.4,0.4l0.1,0.4l-0.3,0.4l-0.5,0.2l0,0.2l-0.1,0.2l0,0.3l-0.1,0l-0.1,0.2
									l0-0.1l-0.1,0.2l-0.2-0.4l0.2-0.6l0.1-0.2l0-0.1l-0.3-0.1l-0.1,0.1l0.1-0.1l-0.2-0.2l0-0.2l-0.2-0.2l-0.3,0.1l0.2-0.2
									l0.1-0.3l-0.1,0l-0.1,0.1l0-0.2l0.3-0.4l0.3-0.3l0.1-0.1l0-0.1l0.1,0l0.1-0.1l0.1,0l0.1-0.1l0.1,0l0.1-0.1l0-0.2l-0.1,0.1
									l0-0.1l0.1-0.1l0.2,0.2l0.2-0.1l0,0.1l0.1-0.1l0.1,0l0.3-0.3l-0.2-0.1l-0.1-0.2l0.3,0l0.1,0.2l0.3-0.3l0.1,0l0,0.1l0.1,0
									l0-0.1l0,0.1l0.1-0.2l0.1,0l-0.1,0.2l0.2-0.1l0.1-0.1l0.1,0l0.1-0.1l0-0.2l0.2-0.1l0-0.1l0.1-0.1l0-0.1l-0.4,0l-0.1,0.2
									l-0.5,0.4l0.2-0.4l0.1-0.2l-0.4,0.2l0.3-0.3l-0.2-0.1l0.6-0.6l0-0.1l-0.3,0.2l-0.1,0l-0.2,0.2l-0.2,0.2l0.1,0.2l-0.1,0.1
									l-0.2,0.1l0.2-0.1l-0.1,0.1l-0.3,0.1l-0.4,0.4l0.3-0.4l0-0.1l-0.1,0.2l-0.4-0.1l0-0.1l-0.1,0l0.1-0.3l-0.2,0l-0.2,0.2
									l0.2-0.1l0,0.1l-0.2,0.1l-0.3,0.3l0.3-0.4l-0.2,0.1l0.2-0.2l-0.3,0.1l0-0.2l0.3-0.3l-0.1,0l0-0.2l0.2-0.2l-0.1,0l-0.2,0.1
									l-0.1,0l0.3-0.2l-0.3,0.2l0.3-0.3l0.1-0.1l-0.3,0.2l-0.1,0l-0.2,0.1l0-0.1l-0.1,0l-0.1,0.1l0.1-0.1l0.3-0.2l0,0l0.2-0.1
									l0.1-0.1l-0.1,0l-0.1,0.1l0,0l-0.4,0.2l0.1-0.1l-0.1,0.1l0.1-0.1l0.1-0.2l0.1-0.1l0.1-0.1l0.1-0.1l0.1-0.1l0,0l0.1-0.1l0,0
									l0.1-0.1l0.1-0.1l0,0l0.1-0.1l-0.1,0.1l0.1-0.1l0.2-0.1l-0.1,0l0.2-0.1l-0.2,0.1l0.2-0.1l0.1-0.1l-0.2,0.1l0,0l-0.2,0.1
									l0.2-0.1l-0.1,0l0,0l-0.3,0.1l0.1-0.1l-0.1,0.1l-0.4,0.2l-0.2,0.1l-0.2,0.1l-0.2,0.2l0.1-0.1l0.1-0.1l-0.2,0.2l0.2-0.1
									l0.1-0.1l0.1-0.1l0,0l-0.1,0l0,0l-0.1,0.1l-0.1,0.1l-0.1,0.1l-0.2,0.2l0.2-0.1l-0.2,0.2l0.1,0l-0.4,0.3l-0.1,0.1l-0.1,0
									c-0.3,0.3-0.7,0.7-1,1l-0.2,0.2l0.1-0.1l-0.1,0.1l0,0l-0.1,0.1l-0.1,0.1l-0.1,0.1l-0.1,0.1l0.1-0.1l0,0l0.1-0.1l-0.1,0.1
									l0.1-0.1l0.2-0.2l0.2-0.2l-0.1,0.1l0.2-0.1l-0.4,0.3l-0.2,0.2l0.2-0.1l-0.1,0.1l0.3-0.2l0.1-0.1l-0.2,0.2l0.1,0l-0.1,0.1
									l0,0.1l0.1-0.1l-0.2,0.2l-0.1,0.1l0.1,0l-0.1,0.1l0,0.1l0.1,0l-0.3,0.4l0,0.1l0.2-0.2l0,0l-0.1,0.1l-0.1,0.1l0,0l0.2-0.2
									l-0.2,0.2l0.1,0l-0.1,0.1l0,0.1l-0.1,0.1l0,0.1l-0.1,0.1l0,0.1l-0.1,0.1l0.1,0l-0.2,0.3l0.1,0l0,0l-0.1,0.2l0,0l-0.1,0.1
									l0,0.1l0,0.1l-0.2,0.3l0.1,0.1l-0.2,0.1l-0.1,0.1l0,0.1l0,0.1l0.1,0l-0.1,0.1l0,0.1l0.1-0.1l0,0.1l0.1-0.1l-0.1,0.3
									l-0.1,0.1l0,0.1l0.1,0l-0.1,0.1l0,0.1l-0.1,0.3l-0.1,0.2l-0.1,0l0.2-0.2l-0.1,0l0-0.1l-0.2,0.3l0,0l0,0l0,0.1l-0.1,0.1
									l-0.3,0.6l0,0l-0.2,0.2l-0.1,0.2l-0.1,0.3l-0.1,0.1l0,0.2l-0.1,0.2l0,0.3l0,0.1l0.1,0l-0.2,0.4l0,0.3l0,0l-0.1,0.2l0.1,0.1
									l0,0.1l0,0l0,0.3l0,0l0,0.3l0,0.1l0,0.1l0,0.1l0,0l0,0.1l0,0l0,0.1l0,0.1l0,0.2l-0.1,0.1l0.1,0.2l0.1,0.2l0,0.1l0,0.2
									l0.1,0.4l0,0.2l0.1-0.1l-0.1-0.3l0-0.1l0-0.2l0-0.2l0-0.1l0,0.1l0-0.3l0-0.1l-0.1-0.4l0.1-0.6l0.1,0.3l0,0.1l0,0.5l0.1,0.3
									l0.1,0l0,0.1L107,87l0,0.1l0,0l0,0.1l0.1,0.2l0,0.1l0.1,0l0,0.1l0.2,0.4l0.1,0.4l-0.1,0.1l0,0.1l-0.1,0l0.1,0.3l0.1,0.1
									l0.1,0.1l0.2,0.1l0.1,0.2l0.2,0.2l0.1,0.1l0.1,0.2l0.2,0.1l0.2-0.1l0.1,0l0-0.1l0.2,0.1l0.3,0.4l0.1,0.2l0.2,0.1l0.3,0.1
									l0.1,0l0-0.1l0,0L110,91l-0.1,0l0.2,0.2l0.2,0.3l0,0.3l0.4,0.2l0,0.1l0.1,0.1l0-0.1l0.1,0l0.1,0.1l0.1-0.1l0.2,0.2l0-0.1
									l0,0.1l0.7,0l0-0.2l0.1-0.1l0,0l0.3,0.1l0.1,0.3l0-0.1l0.1,0l0,0l0,0l0,0l-0.1-0.1l0,0l-0.2-0.2l-0.2-0.1l-1,0.2l-0.1-0.1
									l-0.1,0l-0.1-0.1l-0.2-0.3l0-0.6l0.1-0.2l0-0.1l0.1,0l-0.2-0.2l-0.3-0.1l-0.1-0.1l-0.1,0.1l-0.3,0l0,0l-0.1-0.1l0.1-0.2
									l0-0.3l0,0l0,0l0-0.1l0.1,0.2l0.1-0.3l-0.1,0l0.2-0.3L110,89l-0.2,0l-0.3,0.1l-0.1,0.3l0,0.1l-0.1,0.1l0,0.1l-0.2,0l-0.2,0
									l-0.1,0l-0.1-0.1l-0.1,0l-0.1-0.3l-0.1-0.2l-0.1-0.5l0.1-0.5l0.1-0.3l0-0.3l0-0.1l0,0l0.4-0.2L109,87l0-0.1l0.1,0.1l0.1-0.1
									l0,0.1l0.2,0.1l0.1-0.1l0.1,0.1l0,0.1l0.1,0l0.1,0l0,0.1l0,0l0-0.1l0.1,0.1l0-0.1l-0.1-0.1l0.2,0l0.2,0l0.1,0.1l0.2,0l0,0.1
									l0-0.1l0.1,0l0,0.1l0,0.1l0,0.1l0.3-0.1l0.2,0.3l-0.1,0.2l0,0.1l0-0.1l0.1,0.1l-0.1,0l0.1,0.2l0.1,0l0,0.1l0,0l0.2,0.3
									l0,0.1l0.1,0l0.1-0.4l-0.1-0.3l0-0.1l-0.1-0.5l0.2-0.4l0.3-0.2l0.2-0.2l0.3-0.2l0.2-0.1l-0.1-0.1l0.3,0l-0.2-0.1l0.1-0.1
									l0.1,0.2l0-0.3l-0.2-0.3l0.1-0.2l0.1,0.2l0-0.3l0.2-0.1l-0.1,0.3l0.1,0.1l-0.1,0.1l0.2-0.1l0-0.1l0-0.3l0.1,0l0,0.2l0.2-0.2
									l0.1-0.2l-0.1-0.1l0.3-0.2l0.2,0l0.2,0l0.2-0.4l0.4-0.2l0.1-0.1l0,0.1l0-0.1l0,0.1l0.2-0.1l0-0.1l0.3,0l0.2-0.2l-0.1,0.2
									l0.1,0l-0.2,0.1l-0.2,0.1l0.1,0.2l0.3-0.2l0-0.1l0.3,0l0.3-0.1l0.2,0l-0.2-0.2l-0.2,0.1l-0.4-0.2l0-0.2l-0.1,0l0.2-0.2
									l-0.2,0l-0.2,0l0.2-0.1l0.1,0.1l0.2-0.1l0.1-0.2l-0.2,0l-0.2,0l-0.6,0.3l-0.3,0.3l0.3-0.4L115,82.3z M111.2,76.9l0.3-0.1
									l0-0.2l0.4,0l0,0.1l-0.2,0.1l0.1,0l-0.3,0.2l0-0.1l-0.3,0.2l0.2-0.2l-0.3,0.1L111.2,76.9z M110.4,78.2l0.2-0.1l0.2-0.3
									l0,0.3l0.4-0.2l0.1,0.1l-0.7,0.3l-0.1,0.1l-0.2,0L110.4,78.2z M110.4,81.4l-0.2,0.2l0-0.1l0.1-0.3l-0.1-0.2l0.1-0.4l0.2-0.2
									l0,0.2L110.4,81.4z M112.7,83.8l-0.4,0.1l-0.1,0.2l-0.6,0.1l-0.2-0.1l0.3-0.1l-0.1-0.1l0.1-0.1l0-0.2l-0.3,0.1l0.3-0.3
									l0-0.1l-0.2-0.1l-0.2,0.2l0-0.1l-0.2,0.3l0,0.3l-0.3,0.3l0-0.3l0.3-0.6l0.5-0.2l-0.2-0.1l-0.3,0l0-0.1l-0.1,0l-0.3,0.2
									l-0.2-0.1l0-0.1l0.5-0.3l0.4-0.2l0.2,0l0,0.2l0.1,0l0,0.3l0.5,0.2l0.1,0.3l-0.1,0.1l-0.1-0.2l-0.2,0.4l-0.2,0.1l0,0.1
									l0.1-0.1l0.3,0l0.2-0.2l0.4,0l0,0l0.1,0L112.7,83.8z"/>
								<polygon fill="#FFD100" points="110.9,75.8 110.9,75.8 111,75.8 								"/>
								<polygon fill="#FFD100" points="116.6,80.2 116.6,80.3 116.6,80.3 								"/>
							</g>
							<g>
								<path fill="#FFD100" d="M135.3,93.1l0.1-0.2l0.4-0.6l0.2-0.3l0.4-0.7l0.3-1l0-0.2l0.1,0l0-0.3l-0.1,0l-0.1,0.1l-0.3,0.1
									l-0.1,0.1l-0.1-0.1l-0.1,0.2l-0.1,0l-0.1-0.2l-0.1,0l0.1-0.3l-0.3-0.4l-0.1,0l0-0.1l-0.1,0.1l-0.1-0.5l-0.1-0.2l-0.2-0.2
									l0-0.1l-0.1-0.4l-0.1-0.2l0,0l-0.3-0.3l0-0.2l-0.1-0.1l-0.3-0.7l-0.2-0.2l-0.1-0.4l-0.1-0.2l-0.2-0.1l-0.1,0.1l-0.1,0
									l-0.1,0.1l-0.2-0.1l0,0l-0.3-0.1l-0.1,0l0,0l0-0.1l-0.2,0l-0.1,0l-0.1-0.1l-0.3-0.1l-0.2,0.1l-0.1,0.1l0.1,0.3l-0.1,0.2
									l-0.4-0.2l-0.3,0l-0.2-0.3l-0.4-0.1l-0.2,0l-0.2-0.1l-0.2-0.1l-0.1-0.1l0.1-0.1l0.1-0.1l-0.2-0.2l0.1-0.2l-0.2-0.1l-0.2,0.1
									l0,0l-0.4,0l-0.2,0.1l-0.1-0.1l-0.4,0l-0.1,0.1l-0.3,0l-0.2,0.2l-0.2,0l-0.2,0.2l-0.1,0l-0.6,0l-0.1-0.1l-0.1,0l-0.2,0.4
									l-0.3,0.1l-0.3,0.5l0.1,0.3l-0.4,0.4l-0.3,0.1l-0.1,0.1l-0.1,0.2l-0.2,0.1l-0.1,0.4l-0.2,0.2l-0.2,0.4l-0.1,0l0,0.2l0,0.1
									l0.2,0.1l0,0.6l-0.1,0.4l-0.1,0.2l-0.2,0.1l0.2,0.2l0,0.1l0.1,0l-0.1,0.1l0,0.1l0,0.1l0.2,0l-0.2,0.1l0.2,0.1l0.2,0
									l-0.1,0.1l0.1,0.1l0.3,0.3l0,0.1l0.1,0l0,0.1l0.1,0.3l0.2,0.1l-0.1,0l0.2,0.1l0.5,0.5L126,92l0.4-0.2l0.2,0l0-0.1l0.1,0.1
									l0.2,0l0.1-0.1l0,0.1l0,0l0.2,0.1l0.7-0.3l0,0l0.1,0l0.2,0l0,0l0.4,0l0.1,0.1l0.1,0l0,0.2l0.1,0.1l0.3-0.1l0-0.1l0,0.1
									l0.1,0l0-0.1l0.1,0l0.2,0.1l0,0.2l-0.1,0.2l0,0l0,0.3l-0.2,0.4l-0.1,0l0.1,0.4l0.1,0l-0.1,0l0.2,0.3l0.2,0.2l0,0l0,0.2
									l0.1,0l0.1,0l-0.1,0.1l0.2,0.5l0,0.1l-0.1,0.1l0.1,0.3l0,0.2L130,96l-0.1,0.4l-0.1,0.1l0,0.3l0,0.2l0.2,0.4l0,0.1l0.1,0.3
									l0,0.1l0,0.1l-0.1,0.2l0,0.2l0,0.1l0,0.3l0,0.1l0.1,0.1l0,0l0,0.1l0,0.2l0.1,0.3l-0.1,0.2l-0.1,0l0,0.2l-0.1,0.1l0.2,0.1
									l0.1-0.1l0.2,0l0.2-0.1l0.3,0l0,0l0.2-0.1l0.3-0.2l0.5-0.4l0.4-0.4l0.2-0.2l0.2-0.3l0-0.1l0.1-0.3l0.1-0.1l0.3-0.2l0.1-0.1
									l0.1-0.3l0-0.1l0,0l0.1-0.3l0-0.1l0.1-0.1l0-0.1l0.3-0.2l0.1-0.2l0.2-0.2l0.2,0l0.1-0.1l0.2-0.4l0-0.1l0,0l0.1-0.3l0,0l0,0
									l0-0.3l0.1-0.1l0,0l-0.1-0.1l0-0.4l0.1-0.1l-0.1,0l0.1-0.2l-0.1-0.2l0.1-0.3l0.1-0.2l0-0.1l0.1,0l0-0.1l0.1-0.1l0-0.1
									L135.3,93.1L135.3,93.1z"/>
								<polygon fill="#FFD100" points="134.5,97.4 134.4,97.6 134.4,97.8 134.3,98 134.3,98.1 134.4,98.2 134.7,98 134.9,97.7 
									135,97.5 135.5,96.6 135.5,96.4 135.6,96.3 135.7,96 135.8,96 135.8,95.9 135.9,95.5 135.8,95.4 135.8,95.3 135.7,95.6 
									135.6,95.7 135.6,95.7 135.6,95.8 135.6,95.8 135.5,95.8 135.5,95.9 135.4,96 135.3,96.1 135.3,96.2 135.2,96.1 135.2,96.1 
									135.2,96.2 135.1,96.2 135,96.2 134.8,96.5 134.8,96.9 134.8,96.9 134.8,97 134.8,97 134.6,97.3 								"/>
								<polygon fill="#FFD100" points="127.8,73.1 127.5,73 127.6,73.1 127.6,73.1 127.7,73.1 127.8,73.2 127.8,73.2 127.9,73.2 
									128,73.2 128,73.2 128.1,73.3 128.2,73.3 128.1,73.2 128,73.2 								"/>
								<polygon fill="#FFD100" points="128.2,73.3 128.3,73.4 128.3,73.3 128.3,73.3 128.2,73.3 								"/>
								<polygon fill="#FFD100" points="128.3,73.3 128.4,73.4 128.4,73.4 128.6,73.4 128.6,73.4 128.7,73.4 128.7,73.4 128.5,73.4 
									128.2,73.2 128.3,73.3 128.1,73.2 128.1,73.2 128.2,73.3 128.1,73.3 								"/>
								<polygon fill="#FFD100" points="128.7,73.4 128.7,73.4 129.1,73.6 129.1,73.6 129,73.5 129,73.5 128.8,73.4 128.7,73.4 
									128.6,73.3 128.7,73.4 128.5,73.3 								"/>
								<polygon fill="#FFD100" points="129,73.5 129,73.5 129,73.5 128.9,73.5 								"/>
								<path fill="#FFD100" d="M139.2,88.2L139.2,88.2L139.2,88.2c0-0.1,0-0.2,0-0.2l0,0.1L139.2,88.2z"/>
								<path fill="#FFD100" d="M139.2,87.9l0-0.3l0-0.1l0,0.1l0,0l0-0.1l0,0l0-0.1l0,0l0,0l0-0.1c0,0.3,0.1,0.6,0.1,0.9L139.2,87.9
									z"/>
								<path fill="#FFD100" d="M133.8,76.6c-1.3-1.1-1.4-1.1-2.2-1.7l-0.7-0.5l-0.1,0l0,0l-0.1-0.1l0,0c-0.3-0.2-0.8-0.4-1.2-0.6
									l-0.1,0l0,0l0.1,0l0,0l-0.2-0.1l0,0l0.1,0l0,0l-0.1,0l-0.1,0l0,0l-0.1,0l0,0l0.3,0.1l0.1,0l0.2,0.1l-0.1,0l0,0l0.2,0.1
									l0.4,0.2L130,74l-0.3-0.1l0.1,0.1l0,0l0,0l-0.1-0.1l0,0l0,0l0.1,0l0,0l0.1,0l0,0l-0.1,0l0.1,0.1l0,0l0.1,0.1l0,0l0.1,0
									l0.1,0.1l-0.1,0l0.3,0.1l0.3,0.2l-0.1-0.1l0,0l-0.2-0.1l0.1,0.1l-0.1,0l0,0.1l0.3,0.2l0.1,0.1l0.1,0.1l0.2,0.1l0.3,0.2
									l0.2,0.2l-0.2-0.1l-0.3-0.2l-0.1,0l-0.2-0.1l-0.1,0l0.2,0.1l-0.1,0l0,0l0.1,0.1l0.1,0.1l0,0l0.2,0.1l0,0l0.1,0.1l-0.2-0.1
									l-0.1,0l-0.2-0.1l-0.4-0.3l0.3,0.2l0,0.1l0.1,0.1l0.3,0.2l0.2,0.2l0.3,0.2l0,0l0.2,0.1l0.3,0.2l0.2,0.1l0,0l-0.1,0l-0.2-0.2
									l-0.1-0.1l0,0.1l0.3,0.2l0.2,0.2l0,0.1l0.1,0.1l-0.2,0l-0.1-0.1l0.1,0l-0.2-0.3l-0.1-0.1l0-0.1l-0.2-0.1l-0.4-0.3l-0.2-0.2
									l-0.3-0.1l-0.3-0.2l-0.2-0.1l-0.2,0l0.1,0.1l0.3,0.2l0.1,0.2l0.1,0l0.4,0.3l0.1,0l0.2,0.1l0,0l0.1,0.1l0,0l-0.2-0.1
									l-0.3-0.1l-0.2-0.1l-0.2,0l-0.3-0.2l0.1,0.1l0.3,0.1l0.2,0.1l0,0.1l0.1,0.1l-0.2-0.1l0,0.1l0,0l-0.1,0l0,0l0.1,0.1l-0.2,0
									l0-0.1l-0.1-0.1l-0.1,0l0,0.2l-0.1,0l0.1,0.1l-0.1,0l0.2,0.2l-0.1,0l-0.2-0.1l-0.1-0.1l0.1,0l-0.2-0.1l-0.3,0l0.2,0.1
									l0.2,0.2l0.1,0.1l0.1,0.1l0.1,0.1l-0.2-0.1l-0.1,0l0,0.1l0,0.1l0.3,0.3l-0.1,0l-0.1,0l0,0.1l0-0.1l-0.2-0.1l0.2,0.2l0.1,0
									l0.1,0.1l-0.2,0l-0.1-0.1l-0.1,0l0,0l-0.1,0l-0.2-0.3l-0.5-0.3l0.2,0.1l0-0.1l0.1,0.1l0.3,0l0.1,0l0.1,0l0-0.2l-0.1-0.1
									l-0.2-0.1l-0.4-0.1l-0.3-0.1L129,76l0,0.1L129,76l-0.1,0l0-0.1l0,0l-0.2,0l0,0.1l-0.1,0l-0.2,0l0.1-0.1l-0.2-0.1l-0.2-0.1
									l0,0.1l-0.1-0.1l-0.1,0l0.1,0.2l-0.1-0.1l0.1,0.3l-0.1-0.1l0-0.1l-0.1,0l0,0.1l-0.1,0.1l0.1,0.1l-0.1-0.1l-0.1,0l0,0l0.1,0
									l0.1,0.1l-0.1-0.1l-0.2-0.1l0.1,0.1l0,0.1l-0.1-0.1l0.1,0.1l-0.1-0.1l0,0l0.1,0.1l-0.2-0.1l0.1,0.1l-0.1-0.1l0,0.1l-0.1,0
									l0.1,0.1l-0.1,0l0.1,0.1l-0.1-0.2l0,0.1l-0.1-0.1l-0.1,0l0.1,0.2l-0.2,0l0,0.1l0.2-0.1l0,0l0.1,0.1l0,0.1l-0.1-0.1l0,0.1
									l-0.1-0.1l0,0.1l0.1,0l0.1,0.1l-0.1,0l-0.1,0.1l0.1,0l-0.1,0l0.1,0.1l0,0.1l-0.1,0l0.1,0.2l-0.1,0.1l0.1,0l-0.1,0.1l0.1,0.1
									l-0.1-0.1l0,0l0,0.2l0.2,0l-0.1,0.1l-0.1,0l0,0.1l-0.1,0l0.1,0.1l-0.1,0l0.1,0.1l-0.1-0.1l0.1,0.1l-0.1-0.1l-0.1,0l0,0.2
									l-0.2,0l0,0.1L127,78l0.1-0.1l-0.1,0.1l-0.1,0l0.1,0.1l0.2,0l0.1-0.1l0.1,0l-0.1,0l-0.2,0l-0.1,0l0,0.1l0.1,0l0.1,0.1
									l-0.1,0l0.1,0.1l0.2,0l0.1-0.1l0,0.2l-0.1,0l0.1,0.1l-0.1-0.1l0.1,0.3l0.2,0.1l0,0.1l0.2-0.1l0.1,0l0.1-0.2l0,0l-0.1-0.1
									l0.1,0.1l0-0.2l0.2,0.2l0,0l0.2,0.3l0.2,0.2l0.1,0.1l0,0.1l-0.1,0l0.2,0.2l0,0.1l0.2,0l0-0.2l0.2,0l0-0.3l0,0l-0.1-0.1
									l0.1,0l0-0.1l-0.1,0l0.1,0l-0.1-0.1l0.2,0l0-0.1l0.1,0.1l0-0.1l-0.2-0.1l0.1,0l0-0.1l0.1,0.1l0.1-0.1l-0.3-0.2l-0.1,0
									l-0.1-0.2l0.1,0l-0.1-0.2l0.1-0.1l0-0.2l0.1-0.1l0-0.2l-0.1-0.1l0-0.1l-0.1,0l0.1-0.1l-0.1,0l0,0l0.2,0l0,0l0.2,0.1l0.1,0.1
									l-0.1,0l0,0.2l0,0.1l0,0l0,0.1l0,0l0.1,0.1l-0.1,0.1l0.3,0.3l0.1,0.3l0.2,0.1l0-0.1l0,0.1l0,0l0,0.1l0.2-0.1l0.1,0l0-0.1
									l0.1,0l0-0.1l0,0l0.1,0h0l0.3,0.1l-0.1,0.1l0,0.1l-0.2,0l-0.2,0l-0.2,0.1l0.3,0.2l0,0.1l0.1,0.2l-0.2,0l-0.1-0.1l-0.1,0
									l0,0.3l0,0.1l0.1,0.2l0,0.1l-0.2,0l0.1,0.1l-0.1,0.1l0,0l-0.1,0l-0.1-0.1l-0.2,0.1l0,0.1l-0.2,0.1l0,0.1l0,0l-0.1,0l0,0
									l-0.1,0l0-0.1l-0.1-0.1l0,0.1l-0.1,0l0,0.1l-0.2,0l-0.2-0.2l-0.1,0l0-0.2l0-0.1l0.1,0l0-0.1l-0.1,0l-0.1-0.1l0.1,0l0-0.1
									l-0.2,0.2l0.1,0.1l-0.2,0l0.1,0.3l0.1,0.1l0,0.1l0.1,0.2l0.1,0.1l-0.1,0l0,0.1L128,80l-0.1,0l0,0.1l0,0l-0.1-0.1l-0.1,0.1
									l0,0.1l0,0.1l0,0.1l-0.1,0l-0.1-0.1l0-0.1l-0.1,0l0,0.2l-0.1,0.1l0.1,0l0,0l-0.1,0l0,0l-0.1,0.1l-0.1,0.1l0,0.2l-0.3,0.1
									l0.1,0.1l-0.1,0l-0.2-0.1l-0.1,0l0.2,0.3l-0.2,0l-0.1-0.1l-0.3,0.1l0.1,0.2l0.2,0l0,0.1l0.1,0l0.1,0l0,0l0.1,0l0,0l0,0.1
									l0.2,0.1l0.1,0.4l-0.1,0.3l-0.2,0l-0.1-0.1l-0.2,0l-0.3-0.1l-0.2,0l-0.2-0.1l-0.2,0.2l0,0l0.1,0.3l0.1,0.3l-0.1,0.3l0,0
									l0,0.2l0.1,0.1l0,0.3l0.3,0l0.1,0l0.1,0.1l0.1,0.2l0.1,0l0,0l0.2-0.1l0.4-0.1l0.1,0.1l0.1-0.2l0.1,0l0-0.1l0.1-0.2l-0.1-0.1
									l0-0.1l0.2-0.3l0.2-0.1L128,83l0-0.1l0,0l-0.1-0.1l0-0.1l0.1-0.1l0.4,0.1l0.2-0.2l0.2-0.2l0.3,0.1l0.1,0.3l0.1,0.1l0.4,0.3
									l0.1,0l0.1,0.1l0.1,0l0.1,0.1l0.1,0.1l0.2,0.3l-0.1,0.2l0.1,0l0-0.2l0.1-0.1l0-0.1l-0.1-0.1l0-0.1l0.1-0.1l0.3,0.2l0-0.1
									l-0.1-0.1l-0.2-0.1l-0.2-0.1l0-0.1l-0.3,0l-0.2-0.1l-0.1-0.2l-0.3-0.2l0-0.2l0,0l-0.1-0.1l0.1-0.1l0.1,0l0,0l0,0l0,0.1
									l0.1,0.1l0-0.1l0.1,0l0.2,0.3l0.2,0.2l0.2,0l0.1,0l0.1,0l-0.2,0l0.3,0.1l0.1,0l0,0l0.2,0.2l0,0l0.1,0.4l0.1,0.1l0.3,0.4
									l0.2-0.1l0.2,0.1l-0.2,0l-0.2,0.1l0.2,0.2l0.1,0.2l0-0.1l0.1,0.1l-0.1-0.3l0.2-0.2l-0.2-0.1l-0.1,0l0-0.1l0.1,0l-0.2-0.2
									l0-0.1l0-0.1l0.2,0.1l-0.1-0.2l0.2-0.1l0.2,0.1l0.1,0.1l0.1-0.2l0.2-0.1l-0.2-0.2l-0.1-0.1l0-0.2l0.1-0.1l0,0l-0.1-0.3
									l0.1,0l0-0.1l0,0l0.1-0.3l0.1-0.1l0.1,0l0,0.1l0.2,0l0,0l0,0l0,0.1l-0.1,0.1l0.3,0.2l0.2-0.1l0-0.1l0.1,0l-0.2-0.1l-0.1-0.2
									l0.1-0.1l0.1,0l0-0.1l0.1-0.1l0,0l0.1,0l-0.1,0.1l-0.1,0l0.2,0.1l0,0.2l-0.1,0l0.2,0.1l0.1,0.1l0.1,0l0.2,0.2l0.3,0.2
									l0.1,0.2l0,0.1L134,83l-0.1,0l-0.1,0.1l-0.2-0.1l-0.1,0l0,0l-0.1-0.1l-0.1,0l-0.1-0.1l0,0l-0.2,0l-0.2,0.2l-0.3,0l0.1,0.1
									l0,0.1l-0.2,0l0,0l-0.1,0l-0.1,0.1l0.2,0.3l0.1,0.1l-0.1,0l0.2,0.1l0,0.1l0.1,0l0,0.1l0.2,0l-0.1,0.1l0.2,0l0.2,0.1l0.1-0.2
									l0.1,0l0.3,0.2l0.2-0.1l0.1-0.1l0.1,0.1l0.1-0.1l0.1,0.3l0.1,0.3l0,0.4l0,0.3l0,0.2l-0.2,0.1l-0.1,0l0.1,0.2l0.2,0.3
									l0.2,0.2l0-0.4l0,0l0,0.1l0,0l0,0.3l0.1,0l0.4,0.7l0.1,0.2l0.2,0.1l0.1,0.3l0,0.3l0.1,0.2l0.2,0.1l0.2,0.4l0.1,0.1l0.1,0.2
									l0.1,0.9l0.2,0l0.1-0.1l0.3-0.2l0.1,0l0.1-0.2l0.3-0.3l0-0.2l0.1-0.1l0.1-0.1l0.1,0l0-0.2l0.1,0l0-0.2l0.1-0.1l0-0.3
									l0.1-0.5l-0.2-0.3l-0.2-0.1l-0.1-0.2l0-0.2l0-0.1l0,0l0,0.1l0,0.2l-0.1,0.1l0,0.2l-0.2,0l0,0.1l0,0l0-0.1l0,0l0-0.1l0,0
									l0-0.1l0-0.2l0-0.1l0,0.1l0,0.2l-0.1-0.3l0,0l0-0.1l0-0.1l-0.2-0.2l-0.1,0l-0.1-0.2l-0.1-0.2l0-0.1l0-0.1l0.2-0.1l0.2,0.2
									l0.1,0.2l0.2,0.1l0.1,0.1l0,0.1l0.1,0l0.1-0.1l0,0l0.1-0.1l0.1,0l0.1,0.1l0.1,0.2l0.2,0.1l0.1,0l0.1,0l0.2,0l0-0.1l0.1,0.1
									l0,0l0.1,0l0-0.1l0,0.1l0,0l0.1,0.3l0,0l0,0l0.1,0.2l0.1-0.1l0,0.1l0,0.1l0-0.1l0,0.1l0.1,0.3l0.1,0.1l0.1-0.1l0-0.3l0,0.2
									l0,0.1l0,0.2l0,0.1l0,0l0,0.1l0-0.1l0,0l0,0.1l0,0.3l0,0.3l0.1,0.3l0,0l0,0l0,0.1l0,0.2l0,0.2l0,0l0,0l0,0.2l0,0.1l0,0.3
									l0,0.1l0,0l0,0.2l0,0.1l0.1,0l0-0.2l0,0l0,0l0-0.2l0,0l0-0.3l0,0l0-0.3l0-0.2l0-0.2l0-0.2l0-0.2l0-0.2l0-0.1l0-0.1l0-0.3
									l0-0.2l0-0.1l0-0.1l0,0l0-0.1l0-0.1l0,0l0-0.2l0-0.2l0-0.2v0l0-0.1l0,0.1l0,0l0,0l0-0.1l0-0.2l-0.1-0.2l0,0.1l0,0.2l0,0
									l0,0.1l0,0l0,0.2l0,0l0,0.1c-0.1-0.4-0.1-0.8-0.2-1.2c-0.4-1.8-0.4-1.8-0.8-2.7c-0.7-1.7-0.7-1.7-1.2-2.5
									c-0.9-1.5-1-1.5-1.5-2.3C134.5,77.3,134.5,77.2,133.8,76.6z M130.5,78.9L130.5,78.9l-0.2-0.2l-0.1-0.1l0.1,0l0.1,0.1l0,0
									L130.5,78.9L130.5,78.9z M130.7,78.5L130.7,78.5l-0.3-0.3l-0.1,0l0-0.1l0.1,0l0.1,0.1l0.1,0l0.2,0.2l0,0L130.7,78.5
									L130.7,78.5L130.7,78.5z M131,78.2l-0.1-0.1l-0.2-0.1l-0.1-0.1l0.1,0l-0.2-0.2l0.2,0.1l0.1,0.1L131,78L131,78.2L131,78.2z
									 M136.9,82.3L136.9,82.3L136.9,82.3L136.9,82.3z M136.8,81.1L136.8,81.1l0.1,0.2l-0.2,0l0,0.1l0.1,0.2l-0.2-0.2l-0.1-0.3
									L136.8,81.1L136.8,81.1z M136,83.7l0.1,0.2l-0.1,0l-0.2,0.1l-0.2-0.1l-0.1-0.1l-0.1,0l-0.1-0.1l0-0.1l-0.1-0.2l0.1,0
									l-0.1-0.3l0.1-0.1l-0.2-0.1l-0.2-0.2l0,0l-0.2-0.2l-0.1-0.3l-0.1-0.1l0-0.1l0-0.2l0.1,0l0-0.2l0,0l0.1,0l0.1-0.2l0.2,0
									l0.1,0.3l-0.1,0l0,0.1L135,82l-0.1,0l0.2,0.2l0.1,0.2l0.1,0.1l0.1,0l0,0.2l0,0.1l0.1,0.1l0-0.2l0.1,0l0,0.1l0.1,0.1
									l-0.1,0.1l-0.1-0.1l0.1,0.2l0.1,0l0,0.1l0.1,0.1l0.1,0.3L136,83.7z"/>
								<polygon fill="#FFD100" points="130.9,74.5 130.9,74.4 130.9,74.5 131.1,74.6 								"/>
								<polygon fill="#FFD100" points="136.3,86.4 136.3,86.3 136.3,86.5 								"/>
								<polygon fill="#FFD100" points="126.1,80.7 126,81 126.2,80.9 126.3,80.9 126.3,80.9 126.5,80.9 126.7,80.8 127,80.9 
									127.1,80.7 126.9,80.7 127.1,80.5 127.1,80.3 127,80.2 126.9,80.3 126.8,80.3 126.8,80.2 126.8,80.1 126.8,80.1 126.6,79.9 
									126.5,79.8 126.3,79.6 126.2,79.5 126,79.5 126.1,79.3 126.2,79.1 125.9,79.1 125.8,79.1 125.9,78.8 125.7,78.9 125.7,78.8 
									125.6,78.9 125.6,78.8 125.5,79.1 125.6,79.2 125.5,79.3 125.6,79.4 125.7,79.3 125.5,79.5 125.6,79.6 125.7,79.4 
									125.7,79.6 125.7,79.6 125.7,79.5 125.8,79.5 125.8,79.5 125.8,79.6 125.8,79.8 125.8,79.7 125.9,79.8 125.9,79.7 126,79.8 
									126.1,79.7 126.1,79.9 126.2,79.9 126.2,79.9 126.2,80.1 126.3,80.2 126.1,80.2 126,80.1 126,80.1 126,80.2 126,80.3 
									126.1,80.3 126.1,80.4 126,80.5 126.3,80.7 126.4,80.6 126.4,80.7 								"/>
								<polygon fill="#FFD100" points="125.3,79 125.4,78.9 125.4,78.9 125.3,78.9 								"/>
								<polygon fill="#FFD100" points="125.4,79.1 125.4,79.1 125.5,79.2 125.5,79.2 125.5,79 125.4,79 								"/>
								<polygon fill="#FFD100" points="130.3,76 130.5,76 130.4,75.9 130.3,75.9 								"/>
								<polygon fill="#FFD100" points="127.7,75.8 127.6,75.7 127.6,75.8 								"/>
								<polygon fill="#FFD100" points="127.7,75.8 127.8,75.8 127.7,75.8 127.7,75.8 								"/>
								<polygon fill="#FFD100" points="127.5,75.9 127.5,75.9 127.4,75.9 								"/>
								<polygon fill="#FFD100" points="127.4,76 127.5,76 127.5,75.9 127.4,75.9 127.4,75.9 								"/>
								<polygon fill="#FFD100" points="127.3,76.3 127.2,76.2 127.2,76.3 								"/>
								<polygon fill="#FFD100" points="127.2,77.5 127.2,77.5 127.1,77.4 127.1,77.5 								"/>
								<polygon fill="#FFD100" points="127,77.9 127,77.8 126.9,77.9 								"/>
								<polygon fill="#FFD100" points="127.4,76.1 127.4,76 127.3,76.1 								"/>
								<polygon fill="#FFD100" points="129.1,83.8 129.3,83.7 129.3,83.4 129.1,83.2 129,83.3 128.9,83.3 129.1,83.5 129.1,83.7 
																	"/>
								<polygon fill="#FFD100" points="130.1,84 130,83.9 129.9,84 130.1,84.2 130.4,84.3 130.4,84.1 130.4,83.9 								"/>
								<polygon fill="#FFD100" points="125.6,79.6 125.5,79.7 125.4,79.6 125.4,79.7 125.3,79.6 125.2,79.8 125.3,79.8 125.2,79.9 
									125,79.9 125.1,80 125,80.1 125.2,80.2 125,80.4 125.3,80.3 125.1,80.4 125,80.5 125.1,80.5 125,80.6 125.1,80.6 
									125.1,80.6 125.3,80.6 125.5,80.5 125.7,80.5 125.7,80.3 125.6,80 125.8,79.8 								"/>
								<polygon fill="#FFD100" points="123.8,77.3 123.9,77.2 123.7,77 123.6,77.1 123.4,77 123.3,77 123.3,77.1 123.2,77 
									123.2,77.2 123.1,77.1 123,77.1 123,77.1 122.9,77 122.9,77.2 122.9,77.2 122.8,77.2 122.8,77.3 122.8,77.1 122.5,76.9 
									122.4,77.2 122.5,77.2 122.6,77.2 122.7,77.2 122.7,77.2 122.7,77.3 122.4,77.3 122.6,77.4 122.7,77.3 122.8,77.4 
									122.7,77.4 122.8,77.5 122.6,77.5 122.6,77.6 122.8,77.6 123.2,77.7 123.4,77.6 123.6,77.6 123.7,77.4 123.8,77.5 
									123.8,77.4 123.8,77.4 123.8,77.3 123.9,77.3 								"/>
								<polygon fill="#FFD100" points="128.9,82.8 129,82.9 129,83 129,83.1 129.1,83.1 129.1,83 129.1,82.9 129.1,82.7 129,82.7 
									129,82.7 129,82.7 128.9,82.8 								"/>
								<polygon fill="#FFD100" points="128.4,79.8 128.4,79.6 128.3,79.6 								"/>
								<polygon fill="#FFD100" points="128,79.7 127.9,79.6 128,79.8 								"/>
								<polygon fill="#FFD100" points="128.4,79.6 128.6,79.8 128.6,79.6 128.5,79.5 128.5,79.6 								"/>
								<polygon fill="#FFD100" points="133.4,84.5 133.3,84.5 133.5,84.6 133.6,84.4 133.6,84.3 133.6,84.4 133.4,84.4 								"/>
							</g>
						</g>
					</g>
				</g>
			</g>
			<path fill="#FFD100" d="M122,106.8c-9.7,0-17.5-7.9-17.5-17.5s7.9-17.5,17.5-17.5c9.7,0,17.5,7.9,17.5,17.5
				S131.7,106.8,122,106.8z M122,73.3c-8.8,0-16,7.2-16,16c0,8.8,7.2,16,16,16c8.8,0,16-7.2,16-16C138.1,80.4,130.9,73.3,122,73.3z"
				/>
		</g>
	</g>
</g>
</svg>
